<svg width="16" height="16" viewBox="0 0 16 16" fill="none" xmlns="http://www.w3.org/2000/svg">
<path d="M12.6667 2C13.403 2 14 2.59695 14 3.33333V6C14 6.73638 13.403 7.33333 12.6667 7.33333L3.33333 7.33333C2.59695 7.33333 2 6.73638 2 6L2 3.33333C2 2.59695 2.59695 2 3.33333 2L12.6667 2ZM12.6667 6V3.33333L3.33333 3.33333L3.33333 6L12.6667 6Z" fill="#797981"/>
<path d="M12.6667 8.66667C13.403 8.66667 14 9.26362 14 10V12.6667C14 13.403 13.403 14 12.6667 14H3.33333C2.59695 14 2 13.403 2 12.6667L2 10C2 9.26362 2.59695 8.66667 3.33333 8.66667L12.6667 8.66667ZM12.6667 12.6667V10L3.33333 10L3.33333 12.6667H12.6667Z" fill="#797981"/>
</svg>
