<svg width="18" height="18" viewBox="0 0 18 18" fill="none" xmlns="http://www.w3.org/2000/svg">
<path d="M16.8525 14.115L16.1025 11.22L13.74 2.52749C13.6889 2.33575 13.564 2.17205 13.3925 2.07224C13.221 1.97244 13.0169 1.94466 12.825 1.99499L9.9225 2.74499C9.85323 2.66823 9.76884 2.60661 9.67462 2.56402C9.5804 2.52143 9.47839 2.49878 9.375 2.49749H1.875C1.67609 2.49749 1.48532 2.57651 1.34467 2.71716C1.20402 2.85781 1.125 3.04858 1.125 3.24749V15.2475C1.125 15.4464 1.20402 15.6372 1.34467 15.7778C1.48532 15.9185 1.67609 15.9975 1.875 15.9975H9.375C9.57391 15.9975 9.76468 15.9185 9.90533 15.7778C10.046 15.6372 10.125 15.4464 10.125 15.2475V9.24749L11.775 15.4125C11.8189 15.5761 11.917 15.72 12.0532 15.8208C12.1894 15.9216 12.3557 15.9733 12.525 15.9675C12.5898 15.9749 12.6552 15.9749 12.72 15.9675L16.3425 15C16.4383 14.9744 16.528 14.93 16.6065 14.8695C16.6851 14.809 16.7508 14.7336 16.8 14.6475C16.8791 14.4816 16.8977 14.2932 16.8525 14.115ZM4.8525 14.5275H2.6025V13.0275H4.8525V14.5275ZM4.8525 11.5275H2.6025V7.02749H4.8525V11.5275ZM4.8525 5.52749H2.6025V4.02749H4.8525V5.52749ZM8.6025 14.5275H6.3525V13.0275H8.6025V14.5275ZM8.6025 11.5275H6.3525V7.02749H8.6025V11.5275ZM8.6025 5.52749H6.3525V4.02749H8.6025V5.52749ZM10.29 4.22249L12.465 3.63749L12.855 5.08499L10.68 5.66999L10.29 4.22249ZM12.2325 11.4675L11.07 7.11749L13.245 6.53249L14.4075 10.8825L12.2325 11.4675ZM12.9825 14.3625L12.5925 12.915L14.7675 12.33L15.1575 13.7775L12.9825 14.3625Z" fill="#797981"/>
</svg>
