<svg width="24" height="24" viewBox="0 0 24 24" fill="none" xmlns="http://www.w3.org/2000/svg">
<g id="edit-2">
<path id="&#240;&#159;&#142;&#168; Icon &#208;&#161;olor" fill-rule="evenodd" clip-rule="evenodd" d="M4.29251 17.703C4.08251 17.4927 3.97751 17.2004 4.00351 16.9041L4.38251 12.7294C4.42451 12.2719 4.62651 11.8404 4.95251 11.5141L13.9485 2.50802C14.6505 1.80224 15.9235 1.83728 16.6645 2.5771L19.4025 5.31816L19.4035 5.31916C20.1685 6.08601 20.1995 7.30537 19.4715 8.03619L10.4745 17.0432C10.1495 17.3686 9.71851 17.5708 9.26051 17.6129L5.09051 17.9923C5.06051 17.9943 5.03051 17.9953 4.99951 17.9953C4.73651 17.9953 4.48151 17.8912 4.29251 17.703ZM16.0187 8.66388L13.3237 5.96587L15.2717 4.0147L17.9657 6.7117L16.0187 8.66388ZM9.07954 15.6177L6.10254 15.889L6.36654 12.9297L11.9835 7.30645L14.6795 10.0065L9.07954 15.6177ZM18.9995 21.9996C19.5495 21.9996 19.9995 21.5491 19.9995 20.9985C19.9995 20.4489 19.5495 19.9974 18.9995 19.9974H4.99951C4.45051 19.9974 3.99951 20.4489 3.99951 20.9985C3.99951 21.5491 4.45051 21.9996 4.99951 21.9996H18.9995Z" fill="#888DA7"/>
</g>
</svg>
