<svg width="21" height="20" viewBox="0 0 21 20" fill="none" xmlns="http://www.w3.org/2000/svg">
<path d="M17.1665 5.8335H3.83317C2.9127 5.8335 2.1665 6.57969 2.1665 7.50016V15.8335C2.1665 16.754 2.9127 17.5002 3.83317 17.5002H17.1665C18.087 17.5002 18.8332 16.754 18.8332 15.8335V7.50016C18.8332 6.57969 18.087 5.8335 17.1665 5.8335Z" stroke="#B3B3B3" stroke-width="1.5" stroke-linecap="round" stroke-linejoin="round"/>
<path d="M13.8332 17.5V4.16667C13.8332 3.72464 13.6576 3.30072 13.345 2.98816C13.0325 2.67559 12.6085 2.5 12.1665 2.5H8.83317C8.39114 2.5 7.96722 2.67559 7.65466 2.98816C7.3421 3.30072 7.1665 3.72464 7.1665 4.16667V17.5" stroke="#B3B3B3" stroke-width="1.5" stroke-linecap="round" stroke-linejoin="round"/>
</svg>
