<svg width="21" height="20" viewBox="0 0 21 20" fill="none" xmlns="http://www.w3.org/2000/svg">
<path d="M16.3333 2.5C17.2538 2.5 18 3.24619 18 4.16667V7.5C18 8.42048 17.2538 9.16667 16.3333 9.16667L4.66667 9.16667C3.74619 9.16667 3 8.42047 3 7.5L3 4.16667C3 3.24619 3.74619 2.5 4.66667 2.5L16.3333 2.5ZM16.3333 7.5V4.16667L4.66667 4.16667L4.66667 7.5L16.3333 7.5Z" fill="white"/>
<path d="M16.3333 10.8333C17.2538 10.8333 18 11.5795 18 12.5V15.8333C18 16.7538 17.2538 17.5 16.3333 17.5H4.66667C3.74619 17.5 3 16.7538 3 15.8333L3 12.5C3 11.5795 3.74619 10.8333 4.66667 10.8333L16.3333 10.8333ZM16.3333 15.8333V12.5L4.66667 12.5L4.66667 15.8333H16.3333Z" fill="white"/>
</svg>
