<svg width="20" height="20" viewBox="0 0 20 20" fill="none" xmlns="http://www.w3.org/2000/svg">
<path d="M12.7394 16.0008C12.8956 15.8445 12.9834 15.6326 12.9834 15.4116C12.9834 15.1906 12.8956 14.9787 12.7394 14.8224L8.91774 11.0008C8.76567 10.8423 8.68075 10.6312 8.68075 10.4116C8.68075 10.192 8.76567 9.98087 8.91774 9.82243L12.7394 6.00076C12.8912 5.84359 12.9752 5.63309 12.9733 5.4146C12.9714 5.1961 12.8838 4.98709 12.7293 4.83258C12.5748 4.67807 12.3657 4.59043 12.1472 4.58853C11.9287 4.58664 11.7182 4.67063 11.5611 4.82243L7.73941 8.64326C7.50722 8.87541 7.32303 9.15103 7.19737 9.45437C7.0717 9.75771 7.00703 10.0828 7.00703 10.4112C7.00703 10.7395 7.07171 11.0646 7.19737 11.368C7.32303 11.6713 7.50722 11.9469 7.73941 12.1791L11.5611 16.0008C11.7173 16.157 11.9293 16.2448 12.1502 16.2448C12.3712 16.2448 12.5831 16.157 12.7394 16.0008Z" fill="#797981"/>
</svg>
