<svg width="21" height="20" viewBox="0 0 21 20" fill="none" xmlns="http://www.w3.org/2000/svg">
<path d="M2.1665 2.5H7.1665C8.05056 2.5 8.89841 2.85119 9.52353 3.47631C10.1486 4.10143 10.4998 4.94928 10.4998 5.83333V17.5C10.4998 16.837 10.2364 16.2011 9.7676 15.7322C9.29876 15.2634 8.66288 15 7.99984 15H2.1665V2.5Z" stroke="#B3B3B3" stroke-width="1.5" stroke-linecap="round" stroke-linejoin="round"/>
<path d="M18.8333 2.5H13.8333C12.9493 2.5 12.1014 2.85119 11.4763 3.47631C10.8512 4.10143 10.5 4.94928 10.5 5.83333V17.5C10.5 16.837 10.7634 16.2011 11.2322 15.7322C11.7011 15.2634 12.337 15 13 15H18.8333V2.5Z" stroke="#B3B3B3" stroke-width="1.5" stroke-linecap="round" stroke-linejoin="round"/>
</svg>
