<svg width="21" height="21" viewBox="0 0 21 21" fill="none" xmlns="http://www.w3.org/2000/svg">
<path d="M18.4084 8.99189L17.5751 8.53356L10.0751 4.36689H9.98339C9.9323 4.34529 9.87929 4.32855 9.82506 4.31689H9.66673H9.51673C9.45979 4.32856 9.40402 4.34529 9.35006 4.36689H9.25839L1.75839 8.53356C1.63015 8.60624 1.52347 8.71164 1.44926 8.83901C1.37504 8.96637 1.33594 9.11115 1.33594 9.25856C1.33594 9.40597 1.37504 9.55075 1.44926 9.67811C1.52347 9.80548 1.63015 9.91088 1.75839 9.98356L3.83339 11.1336V15.0836C3.83339 15.7466 4.09679 16.3825 4.56563 16.8513C5.03447 17.3202 5.67035 17.5836 6.33339 17.5836H13.0001C13.6631 17.5836 14.299 17.3202 14.7678 16.8513C15.2367 16.3825 15.5001 15.7466 15.5001 15.0836V11.1336L17.1667 10.2002V12.5836C17.1667 12.8046 17.2545 13.0165 17.4108 13.1728C17.5671 13.3291 17.779 13.4169 18.0001 13.4169C18.2211 13.4169 18.433 13.3291 18.5893 13.1728C18.7456 13.0165 18.8334 12.8046 18.8334 12.5836V9.71689C18.8331 9.56923 18.7937 9.42429 18.719 9.2969C18.6443 9.16951 18.5371 9.06425 18.4084 8.99189ZM13.8334 15.0836C13.8334 15.3046 13.7456 15.5165 13.5893 15.6728C13.433 15.8291 13.2211 15.9169 13.0001 15.9169H6.33339C6.11238 15.9169 5.90042 15.8291 5.74414 15.6728C5.58786 15.5165 5.50006 15.3046 5.50006 15.0836V12.0586L9.25839 14.1419L9.38339 14.1919H9.4584C9.52757 14.2006 9.59756 14.2006 9.66673 14.1919C9.7359 14.2006 9.80589 14.2006 9.87506 14.1919H9.95006C9.9943 14.1826 10.0366 14.1657 10.0751 14.1419L13.8334 12.0586V15.0836ZM9.66673 12.4669L3.88339 9.25023L9.66673 6.03356L15.4501 9.25023L9.66673 12.4669Z" fill="#B3B3B3"/>
</svg>
