<svg width="12" height="12" viewBox="0 0 12 12" fill="none" xmlns="http://www.w3.org/2000/svg">
<path d="M9.5 5.516L5.95417 8.86016C5.51978 9.26984 4.93062 9.5 4.3163 9.5C3.70198 9.5 3.11282 9.26984 2.67843 8.86016C2.24404 8.45047 2 7.89482 2 7.31544C2 6.73606 2.24404 6.18041 2.67843 5.77072L6.22426 2.42656C6.51385 2.15344 6.90662 2 7.31617 2C7.72572 2 8.11849 2.15344 8.40809 2.42656C8.69768 2.69969 8.86037 3.07012 8.86037 3.45637C8.86037 3.84263 8.69768 4.21306 8.40809 4.48619L4.8584 7.83034C4.7136 7.96691 4.51722 8.04363 4.31244 8.04363C4.10767 8.04363 3.91128 7.96691 3.76648 7.83034C3.62169 7.69378 3.54034 7.50857 3.54034 7.31544C3.54034 7.12231 3.62169 6.93709 3.76648 6.80053L7.04223 3.71474" stroke="#797981" stroke-width="0.8" stroke-linecap="round" stroke-linejoin="round"/>
</svg>
