<svg width="20" height="20" viewBox="0 0 20 20" fill="none" xmlns="http://www.w3.org/2000/svg">
<path d="M15 9.01675C14.779 9.01675 14.567 9.10455 14.4107 9.26083C14.2545 9.41711 14.1667 9.62907 14.1667 9.85008V15.8334C14.1667 16.0544 14.0789 16.2664 13.9226 16.4227C13.7663 16.579 13.5543 16.6667 13.3333 16.6667H4.16666C3.94564 16.6667 3.73368 16.579 3.5774 16.4227C3.42112 16.2664 3.33332 16.0544 3.33332 15.8334V6.66675C3.33332 6.44573 3.42112 6.23377 3.5774 6.07749C3.73368 5.92121 3.94564 5.83341 4.16666 5.83341H10.15C10.371 5.83341 10.583 5.74562 10.7392 5.58934C10.8955 5.43306 10.9833 5.2211 10.9833 5.00008C10.9833 4.77907 10.8955 4.56711 10.7392 4.41083C10.583 4.25455 10.371 4.16675 10.15 4.16675H4.16666C3.50362 4.16675 2.86773 4.43014 2.39889 4.89898C1.93005 5.36782 1.66666 6.00371 1.66666 6.66675V15.8334C1.66666 16.4965 1.93005 17.1323 2.39889 17.6012C2.86773 18.07 3.50362 18.3334 4.16666 18.3334H13.3333C13.9964 18.3334 14.6322 18.07 15.1011 17.6012C15.5699 17.1323 15.8333 16.4965 15.8333 15.8334V9.85008C15.8333 9.62907 15.7455 9.41711 15.5892 9.26083C15.433 9.10455 15.221 9.01675 15 9.01675ZM18.2667 2.18341C18.1821 1.97979 18.0203 1.81798 17.8167 1.73341C17.7165 1.69071 17.6089 1.66806 17.5 1.66675H12.5C12.279 1.66675 12.067 1.75455 11.9107 1.91083C11.7545 2.06711 11.6667 2.27907 11.6667 2.50008C11.6667 2.7211 11.7545 2.93306 11.9107 3.08934C12.067 3.24562 12.279 3.33341 12.5 3.33341H15.4917L6.90832 11.9084C6.83022 11.9859 6.76822 12.0781 6.72591 12.1796C6.68361 12.2811 6.66182 12.3901 6.66182 12.5001C6.66182 12.6101 6.68361 12.719 6.72591 12.8206C6.76822 12.9221 6.83022 13.0143 6.90832 13.0917C6.98579 13.1699 7.07796 13.2318 7.17951 13.2742C7.28106 13.3165 7.38998 13.3382 7.49999 13.3382C7.61 13.3382 7.71892 13.3165 7.82047 13.2742C7.92202 13.2318 8.01419 13.1699 8.09166 13.0917L16.6667 4.50841V7.50008C16.6667 7.7211 16.7545 7.93306 16.9107 8.08934C17.067 8.24562 17.279 8.33341 17.5 8.33341C17.721 8.33341 17.933 8.24562 18.0892 8.08934C18.2455 7.93306 18.3333 7.7211 18.3333 7.50008V2.50008C18.332 2.39118 18.3094 2.2836 18.2667 2.18341Z" fill="#5A9BFF"/>
</svg>
